<mxfile host="Electron" modified="2023-06-05T09:40:36.665Z" agent="Mozilla/5.0 (X11; Linux x86_64) AppleWebKit/537.36 (KHTML, like Gecko) draw.io/21.2.8 Chrome/112.0.5615.165 Electron/24.2.0 Safari/537.36" etag="Xi5-MuSpTUhSLgfjw797" version="21.2.8" type="device">
  <diagram name="Page-1" id="WMy46IPan90cm104xRGQ">
    <mxGraphModel dx="1728" dy="999" grid="1" gridSize="10" guides="1" tooltips="1" connect="1" arrows="1" fold="1" page="1" pageScale="1" pageWidth="850" pageHeight="1100" math="0" shadow="0">
      <root>
        <mxCell id="0" />
        <mxCell id="1" parent="0" />
        <mxCell id="cAmLkhbGOLBSGUwEgFSd-28" style="edgeStyle=orthogonalEdgeStyle;rounded=0;orthogonalLoop=1;jettySize=auto;html=1;exitX=0.5;exitY=0;exitDx=0;exitDy=0;entryX=0;entryY=0.5;entryDx=0;entryDy=0;" edge="1" parent="1" source="cAmLkhbGOLBSGUwEgFSd-13" target="cAmLkhbGOLBSGUwEgFSd-22">
          <mxGeometry relative="1" as="geometry">
            <Array as="points">
              <mxPoint x="700" y="540" />
              <mxPoint x="30" y="540" />
              <mxPoint x="30" y="205" />
            </Array>
          </mxGeometry>
        </mxCell>
        <mxCell id="cAmLkhbGOLBSGUwEgFSd-31" style="edgeStyle=orthogonalEdgeStyle;rounded=0;orthogonalLoop=1;jettySize=auto;html=1;exitX=1;exitY=0.5;exitDx=0;exitDy=0;entryX=1;entryY=0.5;entryDx=0;entryDy=0;dashed=1;" edge="1" parent="1" source="cAmLkhbGOLBSGUwEgFSd-23" target="Q97gwF7Si06LRpPnpVqn-12">
          <mxGeometry relative="1" as="geometry">
            <Array as="points">
              <mxPoint x="520" y="375" />
              <mxPoint x="520" y="530" />
              <mxPoint x="230" y="530" />
              <mxPoint x="230" y="165" />
            </Array>
          </mxGeometry>
        </mxCell>
        <mxCell id="cAmLkhbGOLBSGUwEgFSd-13" value="" style="ellipse;whiteSpace=wrap;html=1;" vertex="1" parent="1">
          <mxGeometry x="640" y="630" width="120" height="110" as="geometry" />
        </mxCell>
        <mxCell id="cAmLkhbGOLBSGUwEgFSd-14" style="edgeStyle=orthogonalEdgeStyle;rounded=0;orthogonalLoop=1;jettySize=auto;html=1;exitX=0.5;exitY=0;exitDx=0;exitDy=0;entryX=0;entryY=0.5;entryDx=0;entryDy=0;" edge="1" parent="1" source="cAmLkhbGOLBSGUwEgFSd-12" target="cAmLkhbGOLBSGUwEgFSd-7">
          <mxGeometry relative="1" as="geometry">
            <Array as="points">
              <mxPoint x="155" y="415" />
            </Array>
          </mxGeometry>
        </mxCell>
        <mxCell id="cAmLkhbGOLBSGUwEgFSd-15" style="edgeStyle=orthogonalEdgeStyle;rounded=0;orthogonalLoop=1;jettySize=auto;html=1;exitX=0.5;exitY=0;exitDx=0;exitDy=0;entryX=0;entryY=0.5;entryDx=0;entryDy=0;" edge="1" parent="1" source="cAmLkhbGOLBSGUwEgFSd-12" target="Q97gwF7Si06LRpPnpVqn-19">
          <mxGeometry relative="1" as="geometry" />
        </mxCell>
        <mxCell id="cAmLkhbGOLBSGUwEgFSd-16" style="edgeStyle=orthogonalEdgeStyle;rounded=0;orthogonalLoop=1;jettySize=auto;html=1;exitX=0.5;exitY=0;exitDx=0;exitDy=0;entryX=0;entryY=0.5;entryDx=0;entryDy=0;" edge="1" parent="1" source="cAmLkhbGOLBSGUwEgFSd-12" target="Q97gwF7Si06LRpPnpVqn-18">
          <mxGeometry relative="1" as="geometry">
            <Array as="points">
              <mxPoint x="155" y="250" />
              <mxPoint x="310" y="250" />
              <mxPoint x="310" y="215" />
            </Array>
          </mxGeometry>
        </mxCell>
        <mxCell id="cAmLkhbGOLBSGUwEgFSd-24" style="edgeStyle=orthogonalEdgeStyle;rounded=0;orthogonalLoop=1;jettySize=auto;html=1;exitX=0.5;exitY=0;exitDx=0;exitDy=0;entryX=0;entryY=0.5;entryDx=0;entryDy=0;" edge="1" parent="1" source="cAmLkhbGOLBSGUwEgFSd-12" target="cAmLkhbGOLBSGUwEgFSd-21">
          <mxGeometry relative="1" as="geometry">
            <Array as="points">
              <mxPoint x="155" y="280" />
              <mxPoint x="330" y="280" />
              <mxPoint x="330" y="255" />
            </Array>
          </mxGeometry>
        </mxCell>
        <mxCell id="cAmLkhbGOLBSGUwEgFSd-26" style="edgeStyle=orthogonalEdgeStyle;rounded=0;orthogonalLoop=1;jettySize=auto;html=1;exitX=1;exitY=0.5;exitDx=0;exitDy=0;entryX=0;entryY=0.5;entryDx=0;entryDy=0;" edge="1" parent="1" source="cAmLkhbGOLBSGUwEgFSd-12" target="Q97gwF7Si06LRpPnpVqn-15">
          <mxGeometry relative="1" as="geometry">
            <Array as="points">
              <mxPoint x="560" y="685" />
              <mxPoint x="560" y="165" />
            </Array>
          </mxGeometry>
        </mxCell>
        <mxCell id="cAmLkhbGOLBSGUwEgFSd-12" value="" style="ellipse;whiteSpace=wrap;html=1;" vertex="1" parent="1">
          <mxGeometry x="95" y="630" width="120" height="110" as="geometry" />
        </mxCell>
        <mxCell id="Q97gwF7Si06LRpPnpVqn-3" value="cw20_base" style="swimlane;whiteSpace=wrap;html=1;fontSize=10;" parent="1" vertex="1">
          <mxGeometry x="40" y="40" width="160" height="200" as="geometry" />
        </mxCell>
        <mxCell id="Q97gwF7Si06LRpPnpVqn-11" value="mint" style="whiteSpace=wrap;html=1;fontSize=10;" parent="Q97gwF7Si06LRpPnpVqn-3" vertex="1">
          <mxGeometry x="20" y="70" width="120" height="30" as="geometry" />
        </mxCell>
        <mxCell id="Q97gwF7Si06LRpPnpVqn-12" value="burn" style="whiteSpace=wrap;html=1;fontSize=10;" parent="Q97gwF7Si06LRpPnpVqn-3" vertex="1">
          <mxGeometry x="20" y="110" width="120" height="30" as="geometry" />
        </mxCell>
        <mxCell id="cAmLkhbGOLBSGUwEgFSd-22" value="send" style="whiteSpace=wrap;html=1;fontSize=10;" vertex="1" parent="Q97gwF7Si06LRpPnpVqn-3">
          <mxGeometry x="20" y="150" width="120" height="30" as="geometry" />
        </mxCell>
        <mxCell id="Q97gwF7Si06LRpPnpVqn-5" value="cw721_base" style="swimlane;whiteSpace=wrap;html=1;fontSize=10;" parent="1" vertex="1">
          <mxGeometry x="640" y="40" width="160" height="200" as="geometry" />
        </mxCell>
        <mxCell id="Q97gwF7Si06LRpPnpVqn-13" value="transfer" style="whiteSpace=wrap;html=1;fontSize=10;" parent="Q97gwF7Si06LRpPnpVqn-5" vertex="1">
          <mxGeometry x="20" y="30" width="120" height="30" as="geometry" />
        </mxCell>
        <mxCell id="Q97gwF7Si06LRpPnpVqn-14" value="mint" style="whiteSpace=wrap;html=1;fontSize=10;" parent="Q97gwF7Si06LRpPnpVqn-5" vertex="1">
          <mxGeometry x="20" y="70" width="120" height="30" as="geometry" />
        </mxCell>
        <mxCell id="Q97gwF7Si06LRpPnpVqn-15" value="send" style="whiteSpace=wrap;html=1;fontSize=10;" parent="Q97gwF7Si06LRpPnpVqn-5" vertex="1">
          <mxGeometry x="20" y="110" width="120" height="30" as="geometry" />
        </mxCell>
        <mxCell id="Q97gwF7Si06LRpPnpVqn-16" value="import" style="whiteSpace=wrap;html=1;fontSize=10;" parent="Q97gwF7Si06LRpPnpVqn-5" vertex="1">
          <mxGeometry x="20" y="150" width="120" height="30" as="geometry" />
        </mxCell>
        <mxCell id="Q97gwF7Si06LRpPnpVqn-7" value="pb_contract" style="swimlane;whiteSpace=wrap;html=1;fontSize=10;" parent="1" vertex="1">
          <mxGeometry x="340" y="40" width="160" height="480" as="geometry" />
        </mxCell>
        <mxCell id="Q97gwF7Si06LRpPnpVqn-18" value="&lt;font style=&quot;font-size: 10px;&quot;&gt;create pool&lt;/font&gt;" style="whiteSpace=wrap;html=1;fontSize=10;" parent="Q97gwF7Si06LRpPnpVqn-7" vertex="1">
          <mxGeometry x="20" y="160" width="120" height="30" as="geometry" />
        </mxCell>
        <mxCell id="Q97gwF7Si06LRpPnpVqn-19" value="&lt;font style=&quot;font-size: 10px;&quot;&gt;remove token {poolid, token_id}&lt;/font&gt;" style="whiteSpace=wrap;html=1;fontSize=10;" parent="Q97gwF7Si06LRpPnpVqn-7" vertex="1">
          <mxGeometry x="20" y="280" width="120" height="30" as="geometry" />
        </mxCell>
        <mxCell id="cAmLkhbGOLBSGUwEgFSd-5" value="&lt;b style=&quot;font-size: 10px;&quot;&gt;State&lt;/b&gt;&lt;br style=&quot;font-size: 10px;&quot;&gt;&lt;font style=&quot;font-size: 10px;&quot;&gt;Admin : Addr&lt;br style=&quot;font-size: 10px;&quot;&gt;numpools: u32&lt;br style=&quot;font-size: 10px;&quot;&gt;Pools : Map&amp;lt;u32,Prizepool&amp;gt;&lt;br style=&quot;font-size: 10px;&quot;&gt;cw20_contract : Addr&lt;br style=&quot;font-size: 10px;&quot;&gt;cw721_contract: Addr&lt;br style=&quot;font-size: 10px;&quot;&gt;&lt;/font&gt;" style="rounded=1;whiteSpace=wrap;html=1;align=left;fontSize=10;" vertex="1" parent="Q97gwF7Si06LRpPnpVqn-7">
          <mxGeometry x="20" y="40" width="120" height="100" as="geometry" />
        </mxCell>
        <mxCell id="cAmLkhbGOLBSGUwEgFSd-7" value="&lt;font style=&quot;font-size: 10px;&quot;&gt;update admin {admin}&lt;/font&gt;" style="whiteSpace=wrap;html=1;fontSize=10;" vertex="1" parent="Q97gwF7Si06LRpPnpVqn-7">
          <mxGeometry x="20" y="360" width="120" height="30" as="geometry" />
        </mxCell>
        <mxCell id="cAmLkhbGOLBSGUwEgFSd-20" value="&lt;font style=&quot;font-size: 10px;&quot;&gt;add token {poolid}&lt;/font&gt;" style="whiteSpace=wrap;html=1;fontSize=10;" vertex="1" parent="Q97gwF7Si06LRpPnpVqn-7">
          <mxGeometry x="20" y="240" width="120" height="30" as="geometry" />
        </mxCell>
        <mxCell id="cAmLkhbGOLBSGUwEgFSd-21" value="&lt;font style=&quot;font-size: 10px;&quot;&gt;remove pool {poolid}&lt;/font&gt;" style="whiteSpace=wrap;html=1;fontSize=10;" vertex="1" parent="Q97gwF7Si06LRpPnpVqn-7">
          <mxGeometry x="20" y="200" width="120" height="30" as="geometry" />
        </mxCell>
        <mxCell id="cAmLkhbGOLBSGUwEgFSd-23" value="&lt;font style=&quot;font-size: 10px;&quot;&gt;redeem token {poolid}&lt;/font&gt;" style="whiteSpace=wrap;html=1;fontSize=10;" vertex="1" parent="Q97gwF7Si06LRpPnpVqn-7">
          <mxGeometry x="20" y="320" width="120" height="30" as="geometry" />
        </mxCell>
        <mxCell id="cAmLkhbGOLBSGUwEgFSd-35" value="pool info {poolinfo}" style="whiteSpace=wrap;html=1;fontSize=10;dashed=1;" vertex="1" parent="Q97gwF7Si06LRpPnpVqn-7">
          <mxGeometry x="20" y="400" width="120" height="30" as="geometry" />
        </mxCell>
        <mxCell id="cAmLkhbGOLBSGUwEgFSd-36" value="&lt;font style=&quot;font-size: 10px;&quot;&gt;num pools {}&lt;/font&gt;" style="whiteSpace=wrap;html=1;fontSize=10;dashed=1;" vertex="1" parent="Q97gwF7Si06LRpPnpVqn-7">
          <mxGeometry x="20" y="440" width="120" height="30" as="geometry" />
        </mxCell>
        <mxCell id="Q97gwF7Si06LRpPnpVqn-8" value="transfer" style="whiteSpace=wrap;html=1;fontSize=10;" parent="1" vertex="1">
          <mxGeometry x="60" y="70" width="120" height="30" as="geometry" />
        </mxCell>
        <mxCell id="Q97gwF7Si06LRpPnpVqn-10" style="edgeStyle=orthogonalEdgeStyle;rounded=0;orthogonalLoop=1;jettySize=auto;html=1;exitX=0.5;exitY=1;exitDx=0;exitDy=0;fontSize=10;" parent="1" source="Q97gwF7Si06LRpPnpVqn-8" target="Q97gwF7Si06LRpPnpVqn-8" edge="1">
          <mxGeometry relative="1" as="geometry" />
        </mxCell>
        <mxCell id="cAmLkhbGOLBSGUwEgFSd-1" value="User" style="shape=umlActor;verticalLabelPosition=bottom;verticalAlign=top;html=1;outlineConnect=0;" vertex="1" parent="1">
          <mxGeometry x="685" y="640" width="30" height="60" as="geometry" />
        </mxCell>
        <mxCell id="cAmLkhbGOLBSGUwEgFSd-2" value="Admin&lt;br&gt;" style="shape=umlActor;verticalLabelPosition=bottom;verticalAlign=top;html=1;outlineConnect=0;" vertex="1" parent="1">
          <mxGeometry x="140" y="640" width="30" height="60" as="geometry" />
        </mxCell>
        <mxCell id="cAmLkhbGOLBSGUwEgFSd-27" style="edgeStyle=orthogonalEdgeStyle;rounded=0;orthogonalLoop=1;jettySize=auto;html=1;exitX=1;exitY=0.5;exitDx=0;exitDy=0;entryX=1;entryY=0.5;entryDx=0;entryDy=0;dashed=1;" edge="1" parent="1" source="Q97gwF7Si06LRpPnpVqn-15" target="cAmLkhbGOLBSGUwEgFSd-20">
          <mxGeometry relative="1" as="geometry">
            <Array as="points">
              <mxPoint x="830" y="165" />
              <mxPoint x="830" y="295" />
            </Array>
          </mxGeometry>
        </mxCell>
        <mxCell id="cAmLkhbGOLBSGUwEgFSd-29" style="edgeStyle=orthogonalEdgeStyle;rounded=0;orthogonalLoop=1;jettySize=auto;html=1;exitX=1;exitY=0.5;exitDx=0;exitDy=0;entryX=0;entryY=0.5;entryDx=0;entryDy=0;dashed=1;" edge="1" parent="1" source="cAmLkhbGOLBSGUwEgFSd-22" target="cAmLkhbGOLBSGUwEgFSd-23">
          <mxGeometry relative="1" as="geometry" />
        </mxCell>
        <mxCell id="cAmLkhbGOLBSGUwEgFSd-30" style="edgeStyle=orthogonalEdgeStyle;rounded=0;orthogonalLoop=1;jettySize=auto;html=1;exitX=1;exitY=0.5;exitDx=0;exitDy=0;entryX=0;entryY=0.5;entryDx=0;entryDy=0;dashed=1;" edge="1" parent="1" source="cAmLkhbGOLBSGUwEgFSd-23" target="Q97gwF7Si06LRpPnpVqn-13">
          <mxGeometry relative="1" as="geometry" />
        </mxCell>
      </root>
    </mxGraphModel>
  </diagram>
</mxfile>
